<?xml version="1.0" encoding="UTF-8"?>
<svg id="Layer_1" xmlns="http://www.w3.org/2000/svg" xmlns:xlink="http://www.w3.org/1999/xlink" version="1.1" viewBox="0 0 256 256">
  <!-- Generator: Adobe Illustrator 29.8.1, SVG Export Plug-In . SVG Version: 2.1.1 Build 2)  -->
  <defs>
    <style>
      .st0 {
        fill: url(#linear-gradient);
      }

      .st1 {
        fill: #fff;
      }
    </style>
    <linearGradient id="linear-gradient" x1="29.6" y1="226.4" x2="224.1" y2="31.9" gradientUnits="userSpaceOnUse">
      <stop offset="0" stop-color="#752674"/>
      <stop offset="1" stop-color="#e79aca"/>
    </linearGradient>
  </defs>
  <rect class="st0" x="0" y="0" width="256" height="256" rx="51" ry="51"/>
  <path class="st1" d="M157.9,172.7c0-7.3-2.6-13-7.8-16.9-5.2-3.9-14.5-8.1-28-12.4-13.5-4.4-24.1-8.7-32-12.9-21.4-11.6-32.1-27.2-32.1-46.8s2.9-19.3,8.6-27.3c5.7-8,14-14.2,24.7-18.7,10.8-4.5,22.8-6.7,36.2-6.7s25.5,2.4,36,7.3c10.5,4.9,18.7,11.8,24.6,20.7,5.8,8.9,8.7,19,8.7,30.3h-38.9c0-8.6-2.7-15.4-8.2-20.1-5.4-4.8-13.1-7.2-22.9-7.2s-16.9,2-22.2,6c-5.3,4-7.9,9.3-7.9,15.9s3.1,11.3,9.3,15.4c6.2,4.1,15.3,8,27.3,11.7,22.1,6.7,38.2,14.9,48.3,24.7,10.1,9.8,15.2,22.1,15.2,36.8s-6.2,29.1-18.5,38.4c-12.3,9.3-29,13.9-49.9,13.9s-27.7-2.7-39.7-8c-11.9-5.3-21-12.6-27.3-21.8-6.3-9.2-9.4-20-9.4-32.1h39c0,20.8,12.4,31.2,37.3,31.2s16.5-1.9,21.6-5.6c5.2-3.8,7.8-9,7.8-15.7Z"/>
</svg>